# xmcd CD database file
#
# Track frame offsets:
#	150
#	18081
#	35027
#	58734
#	84015
#	91241
#	106953
#	127386
#	146621
#	167102
#	179571
#	196365
#
# Disc length: 2683 seconds
#
# Revision: 0
# Processed by: cddbd v1.5.1PL0 Copyright (c) Steve Scherf et al.
# Submitted via: CDex 1.51
#
DISCID=a30a790c
DTITLE=Horacio Fumero - Isoca
DYEAR=2005
DGENRE=Jazz
TTITLE0=Danzarín
TTITLE1=Milestones
TTITLE2=Una Perla en el Vacío
TTITLE3=These Foolish Things
TTITLE4=Isoca 
TTITLE5=Cinco Siglos Igual
TTITLE6=Cancao triste
TTITLE7=Milonga para Isoca
TTITLE8=Libertango
TTITLE9=Nómada
TTITLE10=La Compañera
TTITLE11=Seu Lorenzo No Vinho fragmento
EXTD=YEAR: 2005
EXTT0=
EXTT1=
EXTT2=
EXTT3=
EXTT4=
EXTT5=
EXTT6=
EXTT7=
EXTT8=
EXTT9=
EXTT10=
EXTT11=
PLAYORDER=
